Coordinates
version=1
nRows=26
nColumns=24
inDegrees=yes

Units are S.I. units (second, meters, Newtons, ...)
Angles are in degrees.

endheader
time	pelvis_tilt	pelvis_list	pelvis_rotation	pelvis_tx	pelvis_ty	pelvis_tz	hip_flexion_r	hip_adduction_r	hip_rotation_r	knee_angle_r	ankle_angle_r	subtalar_angle_r	mtp_angle_r	hip_flexion_l	hip_adduction_l	hip_rotation_l	knee_angle_l	ankle_angle_l	subtalar_angle_l	mtp_angle_l	lumbar_extension	lumbar_bending	lumbar_rotation
     19.09000000	     -3.45608172	     -3.87257321	   -276.10113190	     -0.00991455	      0.07990252	     -1.93171955	    -16.14601117	     -4.75055178	    -10.78313755	    -17.04432911	     10.05358755	      0.11650465	      9.28881269	     31.75479481	     -0.99739055	    -15.43821087	    -18.40450649	     -7.18857140	     -0.51719300	      5.75799346	     -5.95271462	     -7.54736709	      7.81326552
     19.09500000	     -3.69074393	     -3.88514127	   -276.03847335	     -0.01110353	      0.07957101	     -1.93307050	    -16.07566241	     -5.22699003	    -11.06408178	    -17.86508684	      9.20113322	      0.40948831	     10.99728169	     31.81174243	     -0.73660501	    -15.22875094	    -19.14866701	     -7.16708473	     -1.28717032	      3.46488138	     -5.77603484	     -7.73146846	      7.60658618
     19.10000000	     -3.88415278	     -3.89259538	   -275.97362642	     -0.01223465	      0.07937536	     -1.93439992	    -15.96056398	     -5.63245882	    -11.14816797	    -18.74694986	      8.26117445	      0.38826768	     12.00564716	     31.87408539	     -0.52847968	    -15.06912580	    -19.93257487	     -7.31948539	     -1.75334650	      2.29279049	     -5.61371961	     -7.88210051	      7.42061126
     19.10500000	     -4.03672209	     -3.92117530	   -275.88673812	     -0.01342130	      0.07922851	     -1.93566407	    -15.75101797	     -6.00784757	    -11.27288886	    -19.73268987	      7.47648137	      0.38113569	     12.06234284	     31.98266025	     -0.34398899	    -14.81179225	    -20.75129439	     -7.64579694	     -2.01631951	      2.08258463	     -5.44616438	     -7.97921642	      7.20419749
     19.11000000	     -4.19852730	     -3.91174445	   -275.76977144	     -0.01470619	      0.07924830	     -1.93693530	    -15.53778409	     -6.41651966	    -11.54825192	    -20.78382819	      6.18867041	      0.49703761	     14.37635281	     32.01735240	     -0.08165857	    -14.48046297	    -21.50345901	     -7.61563553	     -2.39902748	      0.59667706	     -5.32367499	     -8.09400116	      6.96726964
     19.11500000	     -4.30156811	     -3.92888201	   -275.60966016	     -0.01603563	      0.07929161	     -1.93818369	    -15.23813661	     -6.75243303	    -11.78980755	    -21.91971613	      5.15724167	      0.44977361	     14.39137025	     32.09115296	      0.16045173	    -14.10365690	    -22.28638356	     -7.74735721	     -2.67875933	      0.61597353	     -5.18581882	     -8.13004635	      6.69388458
     19.12000000	     -4.39939142	     -3.91938012	   -275.48644492	     -0.01727016	      0.07948706	     -1.93919447	    -14.86178097	     -7.10778927	    -12.03352394	    -23.15931900	      3.56225912	      0.40704558	     17.01317463	     32.11184209	      0.38852775	    -13.82926333	    -23.04505304	     -7.71027249	     -2.97405853	      0.98027932	     -5.10153054	     -8.18219721	      6.46743073
     19.12500000	     -4.46360254	     -3.88983716	   -275.28551413	     -0.01862749	      0.07977981	     -1.94034980	    -14.50871995	     -7.41867837	    -12.33914460	    -24.39344511	      2.26170918	      0.28756061	     16.98412940	     32.06011550	      0.65332680	    -13.46266116	    -23.78928380	     -7.38808994	     -3.14631705	      1.09498124	     -5.03202626	     -8.18438647	      6.15251898
     19.13000000	     -4.50669933	     -3.87510176	   -275.10085915	     -0.01991470	      0.08016410	     -1.94142110	    -14.04639960	     -7.71695374	    -12.58995165	    -25.73317927	      0.44332750	      0.12159488	     19.77499817	     31.98452466	      0.86870399	    -13.25666323	    -24.54175165	     -6.99370270	     -3.21535837	      1.41151764	     -4.94920367	     -8.18051468	      5.89793369
     19.13500000	     -4.54441518	     -3.79576679	   -274.87629777	     -0.02122622	      0.08071178	     -1.94269514	    -13.68375945	     -8.00192780	    -12.89799777	    -27.00573429	     -1.11263728	     -0.26750956	     19.90003733	     31.76709289	      1.09307865	    -13.15158493	    -25.25718331	     -6.30439199	     -3.19579315	      1.59940039	     -4.91938135	     -8.15860802	      5.51144690
     19.14000000	     -4.50887425	     -3.72423083	   -274.71662756	     -0.02249991	      0.08135253	     -1.94331051	    -13.10951799	     -8.28041058	    -13.19651946	    -28.51174848	     -3.08229948	     -0.47110572	     22.17658103	     31.57480649	      1.19833084	    -13.14444644	    -25.94091363	     -5.76143545	     -3.05862285	      2.16123790	     -4.95203033	     -8.07338156	      5.27015160
     19.14500000	     -4.50601621	     -3.60773762	   -274.47110136	     -0.02380316	      0.08207355	     -1.94419144	    -12.62724489	     -8.54024165	    -13.44101960	    -29.96086184	     -4.81819543	     -0.98642712	     22.03794723	     31.26686366	      1.38459114	    -13.12455730	    -26.51607608	     -5.14575622	     -2.95733323	      2.32362365	     -5.00635141	     -8.01309129	      4.89566751
     19.15000000	     -4.49945491	     -3.50961103	   -274.22383995	     -0.02514072	      0.08288464	     -1.94501763	    -12.05641413	     -8.86024733	    -13.78779267	    -31.50355218	     -6.49778623	     -1.54458414	     22.17742360	     30.92745809	      1.58352974	    -13.06565649	    -26.98513121	     -4.60143939	     -2.73579254	      2.54826416	     -5.03474617	     -7.95520381	      4.56422581
     19.15500000	     -4.51910398	     -3.36032985	   -273.94397549	     -0.02657696	      0.08377092	     -1.94583223	    -11.52071510	     -9.21363562	    -14.08065604	    -33.07447910	     -8.26535029	     -2.08192963	     22.09736058	     30.47534360	      1.85939972	    -12.94867217	    -27.32163878	     -4.07085017	     -2.75627660	      2.81063192	     -5.13375215	     -7.90789941	      4.16329924
     19.16000000	     -4.53187780	     -3.23998584	   -273.67732334	     -0.02802519	      0.08473626	     -1.94645511	    -10.88761560	     -9.54300873	    -14.30212677	    -34.73033850	     -9.97799499	     -2.78130588	     21.85974540	     29.99058742	      2.12406211	    -12.85539187	    -27.52065355	     -3.59897719	     -2.64360919	      3.08027554	     -5.20774251	     -7.85349856	      3.81900137
     19.16500000	     -4.54331991	     -3.12125347	   -273.43772703	     -0.02935091	      0.08573091	     -1.94703159	    -10.20786084	     -9.89302643	    -14.51520887	    -36.41571047	    -11.66371462	     -3.60396941	     21.48841810	     29.47214838	      2.37082087	    -12.76827996	    -27.66313223	     -3.11381646	     -2.55836539	      3.36462494	     -5.29528007	     -7.80273325	      3.45510859
     19.17000000	     -4.56898845	     -3.07532603	   -273.19474743	     -0.03089714	      0.08667444	     -1.94763803	     -9.40685790	    -10.26700962	    -14.68753759	    -38.15440299	    -13.28427063	     -4.61537220	     20.66458108	     28.98356934	      2.65084002	    -12.66938793	    -27.72108131	     -2.67224559	     -2.40404212	      3.83193279	     -5.30182440	     -7.73918611	      3.12862603
     19.17500000	     -4.60546659	     -2.94676397	   -272.99293532	     -0.03211215	      0.08779982	     -1.94790011	     -8.65641168	    -10.61032268	    -14.65114990	    -39.86716677	    -14.63978245	     -5.52319539	     17.90465276	     28.35602442	      2.88460940	    -12.70898929	    -27.67279256	     -2.35461280	     -2.20269577	      4.84113725	     -5.43597037	     -7.71575619	      2.77894096
     19.18000000	     -4.64579395	     -2.84844713	   -272.77898722	     -0.03342447	      0.08894939	     -1.94801108	     -7.80410728	    -10.95912274	    -14.70868028	    -41.61263856	    -16.41116939	     -6.81336930	     17.40717250	     27.73815760	      3.15976319	    -12.64390272	    -27.54746240	     -1.97923777	     -2.15209753	      4.97836104	     -5.55923865	     -7.68578489	      2.41028376
     19.18500000	     -4.71188317	     -2.78349127	   -272.60392201	     -0.03468778	      0.09012998	     -1.94813421	     -6.89993482	    -11.33980283	    -14.71101504	    -43.32834007	    -17.75516211	     -8.07555065	     14.33746095	     27.10986806	      3.45399662	    -12.58628972	    -27.33954032	     -1.67277882	     -2.02487421	      5.53157856	     -5.63546649	     -7.67782499	      2.10611370
     19.19000000	     -4.75352772	     -2.72935109	   -272.36470923	     -0.03618022	      0.09137852	     -1.94834755	     -6.01267921	    -11.70594404	    -14.79475645	    -44.96824693	    -19.52403930	     -9.27325454	     13.74058747	     26.45115993	      3.78704526	    -12.39504837	    -27.05534657	     -1.32944287	     -2.11136970	      5.64053086	     -5.69243823	     -7.61424854	      1.70434939
     19.19500000	     -4.77743576	     -2.72144630	   -272.29810034	     -0.03712900	      0.09257605	     -1.94797545	     -4.87547427	    -11.97996285	    -14.51534040	    -46.70174671	    -20.86051629	    -10.59793515	     10.16942877	     25.86331070	      3.96933116	    -12.39172704	    -26.75975726	     -1.01413398	     -1.93092072	      5.91721010	     -5.74117198	     -7.57498441	      1.48439195
     19.20000000	     -4.82918568	     -2.69858299	   -272.20870191	     -0.03814576	      0.09389799	     -1.94775461	     -3.82092236	    -12.27127782	    -14.32691842	    -48.26375417	    -22.29991458	    -12.02655894	      7.45309692	     25.20630055	      4.22776145	    -12.29058638	    -26.37132807	     -0.75361689	     -2.01046590	      6.04268601	     -5.79030077	     -7.56314095	      1.24049271
     19.20500000	     -4.89321104	     -2.63580700	   -272.13997959	     -0.03897305	      0.09528889	     -1.94732530	     -2.81109491	    -12.55476396	    -14.10352999	    -49.78119687	    -23.96876883	    -13.32689502	      6.90399211	     24.49316460	      4.47642519	    -12.21232821	    -25.94025221	     -0.51578604	     -2.06970623	      6.11561697	     -5.91228970	     -7.58007556	      1.00166995
     19.21000000	     -4.90393134	     -2.66366751	   -272.09288169	     -0.03993653	      0.09651487	     -1.94705611	     -1.73027852	    -12.79644844	    -13.87798859	    -51.21703272	    -24.82861442	    -14.38655080	      4.17552058	     23.89452496	      4.66692562	    -12.09873587	    -25.55828715	     -0.24696289	     -2.03899853	      6.29289802	     -5.92397784	     -7.51664838	      0.81383443
     19.21500000	     -4.90836585	     -2.65769484	   -272.07604581	     -0.04068426	      0.09782801	     -1.94654871	     -0.66993462	    -12.98665339	    -13.59237548	    -52.57095970	    -25.25853219	    -14.82522578	      3.85931952	     23.25285189	      4.82575672	    -11.98447159	    -25.13758542	      0.01161912	     -2.08743091	      6.33555364	     -5.97970600	     -7.46260664	      0.63372172
